{
  "accessors": [
    {
      "bufferView": 1,
      "componentType": 5126,
      "count": 65532,
      "max": [
        0.038718633353710175,
        0.038718640804290771,
        0.16575489938259125
      ],
      "min": [
        -0.038718633353710175,
        -0.03871864452958107,
        0.0098420176655054092
      ],
      "type": "VEC3"
    },
    {
      "bufferView": 1,
      "byteOffset": 786384,
      "componentType": 5126,
      "count": 65532,
      "max": [
        1,
        1,
        1
      ],
      "min": [
        -1,
        -1,
        -1
      ],
      "type": "VEC3"
    },
    {
      "bufferView": 0,
      "componentType": 5125,
      "count": 356829,
      "max": [
        65531
      ],
      "min": [
        0
      ],
      "type": "SCALAR"
    },
    {
      "bufferView": 1,
      "byteOffset": 1572768,
      "componentType": 5126,
      "count": 65532,
      "max": [
        0.036613631993532181,
        0.044499479234218597,
        0.16406182944774628
      ],
      "min": [
        -0.044303532689809799,
        -0.036613646894693375,
        0.0092608602717518806
      ],
      "type": "VEC3"
    },
    {
      "bufferView": 1,
      "byteOffset": 2359152,
      "componentType": 5126,
      "count": 65532,
      "max": [
        1,
        1,
        1
      ],
      "min": [
        -1,
        -1,
        -1
      ],
      "type": "VEC3"
    },
    {
      "bufferView": 0,
      "byteOffset": 1427316,
      "componentType": 5125,
      "count": 307047,
      "max": [
        65531
      ],
      "min": [
        0
      ],
      "type": "SCALAR"
    },
    {
      "bufferView": 1,
      "byteOffset": 3145536,
      "componentType": 5126,
      "count": 65532,
      "max": [
        0.07245539128780365,
        0.078523643314838409,
        0.14535130560398102
      ],
      "min": [
        -0.07611393928527832,
        -0.072668887674808502,
        0.0076244468800723553
      ],
      "type": "VEC3"
    },
    {
      "bufferView": 1,
      "byteOffset": 3931920,
      "componentType": 5126,
      "count": 65532,
      "max": [
        0.99999988079071045,
        1,
        1
      ],
      "min": [
        -0.99999988079071045,
        -1,
        -1
      ],
      "type": "VEC3"
    },
    {
      "bufferView": 0,
      "byteOffset": 2655504,
      "componentType": 5125,
      "count": 341319,
      "max": [
        65531
      ],
      "min": [
        0
      ],
      "type": "SCALAR"
    },
    {
      "bufferView": 1,
      "byteOffset": 4718304,
      "componentType": 5126,
      "count": 65532,
      "max": [
        0.078523635864257812,
        0.078281432390213013,
        0.010681109502911568
      ],
      "min": [
        -0.078464940190315247,
        -0.07849595695734024,
        0.0076244468800723553
      ],
      "type": "VEC3"
    },
    {
      "bufferView": 1,
      "byteOffset": 5504688,
      "componentType": 5126,
      "count": 65532,
      "max": [
        0.79546773433685303,
        0.81453084945678711,
        1
      ],
      "min": [
        -0.8543505072593689,
        -0.81230384111404419,
        0.51369315385818481
      ],
      "type": "VEC3"
    },
    {
      "bufferView": 0,
      "byteOffset": 4020780,
      "componentType": 5125,
      "count": 341892,
      "max": [
        65531
      ],
      "min": [
        0
      ],
      "type": "SCALAR"
    },
    {
      "bufferView": 1,
      "byteOffset": 6291072,
      "componentType": 5126,
      "count": 65532,
      "max": [
        0.074960581958293915,
        0.078113652765750885,
        0.010568259283900261
      ],
      "min": [
        -0.078523643314838409,
        -0.076488323509693146,
        0.0076244468800723553
      ],
      "type": "VEC3"
    },
    {
      "bufferView": 1,
      "byteOffset": 7077456,
      "componentType": 5126,
      "count": 65532,
      "max": [
        0.85082501173019409,
        0.82146269083023071,
        1
      ],
      "min": [
        -0.82731080055236816,
        -0.8239293098449707,
        0.49626439809799194
      ],
      "type": "VEC3"
    },
    {
      "bufferView": 0,
      "byteOffset": 5388348,
      "componentType": 5125,
      "count": 331353,
      "max": [
        65531
      ],
      "min": [
        0
      ],
      "type": "SCALAR"
    },
    {
      "bufferView": 1,
      "byteOffset": 7863840,
      "componentType": 5126,
      "count": 65532,
      "max": [
        0.076779045164585114,
        0.077711187303066254,
        0.010570704936981201
      ],
      "min": [
        -0.076529614627361298,
        -0.076184280216693878,
        0.0076244468800723553
      ],
      "type": "VEC3"
    },
    {
      "bufferView": 1,
      "byteOffset": 8650224,
      "componentType": 5126,
      "count": 65532,
      "max": [
        0.83254897594451904,
        0.87621039152145386,
        1
      ],
      "min": [
        -0.83183878660202026,
        -0.84089827537536621,
        0.46474835276603699
      ],
      "type": "VEC3"
    },
    {
      "bufferView": 0,
      "byteOffset": 6713760,
      "componentType": 5125,
      "count": 322695,
      "max": [
        65531
      ],
      "min": [
        0
      ],
      "type": "SCALAR"
    },
    {
      "bufferView": 1,
      "byteOffset": 9436608,
      "componentType": 5126,
      "count": 65532,
      "max": [
        0.077716879546642303,
        0.077199317514896393,
        0.010559900663793087
      ],
      "min": [
        -0.07618926465511322,
        -0.075113371014595032,
        0.0076244468800723553
      ],
      "type": "VEC3"
    },
    {
      "bufferView": 1,
      "byteOffset": 10222992,
      "componentType": 5126,
      "count": 65532,
      "max": [
        0.84146785736083984,
        0.78743582963943481,
        1
      ],
      "min": [
        -0.80891656875610352,
        -0.84408175945281982,
        0.48540776968002319
      ],
      "type": "VEC3"
    },
    {
      "bufferView": 0,
      "byteOffset": 8004540,
      "componentType": 5125,
      "count": 316980,
      "max": [
        65531
      ],
      "min": [
        0
      ],
      "type": "SCALAR"
    },
    {
      "bufferView": 1,
      "byteOffset": 11009376,
      "componentType": 5126,
      "count": 65532,
      "max": [
        0.076930738985538483,
        0.078502349555492401,
        0.010536612942814827
      ],
      "min": [
        -0.078360788524150848,
        -0.074536070227622986,
        0.0076244468800723553
      ],
      "type": "VEC3"
    },
    {
      "bufferView": 1,
      "byteOffset": 11795760,
      "componentType": 5126,
      "count": 65532,
      "max": [
        0.83673906326293945,
        0.83375382423400879,
        1
      ],
      "min": [
        -0.78610676527023315,
        -0.82725793123245239,
        0.52565103769302368
      ],
      "type": "VEC3"
    },
    {
      "bufferView": 0,
      "byteOffset": 9272460,
      "componentType": 5125,
      "count": 335709,
      "max": [
        65531
      ],
      "min": [
        0
      ],
      "type": "SCALAR"
    },
    {
      "bufferView": 1,
      "byteOffset": 12582144,
      "componentType": 5126,
      "count": 65533,
      "max": [
        0.07629857212305069,
        0.076540939509868622,
        0.010573974810540676
      ],
      "min": [
        -0.07657921314239502,
        -0.076764151453971863,
        0.0076244482770562172
      ],
      "type": "VEC3"
    },
    {
      "bufferView": 1,
      "byteOffset": 13368540,
      "componentType": 5126,
      "count": 65533,
      "max": [
        0.85006111860275269,
        0.99956768751144409,
        1
      ],
      "min": [
        -0.84271764755249023,
        -1,
        -1
      ],
      "type": "VEC3"
    },
    {
      "bufferView": 0,
      "byteOffset": 10615296,
      "componentType": 5125,
      "count": 276888,
      "max": [
        65532
      ],
      "min": [
        0
      ],
      "type": "SCALAR"
    },
    {
      "bufferView": 1,
      "byteOffset": 14154936,
      "componentType": 5126,
      "count": 65532,
      "max": [
        0.082078002393245697,
        0.082078002393245697,
        0.14334574341773987
      ],
      "min": [
        -0.082078002393245697,
        -0.082078002393245697,
        -0.0017339527839794755
      ],
      "type": "VEC3"
    },
    {
      "bufferView": 1,
      "byteOffset": 14941320,
      "componentType": 5126,
      "count": 65532,
      "max": [
        1,
        1,
        1
      ],
      "min": [
        -1,
        -1,
        -1
      ],
      "type": "VEC3"
    },
    {
      "bufferView": 0,
      "byteOffset": 11722848,
      "componentType": 5125,
      "count": 181080,
      "max": [
        65531
      ],
      "min": [
        0
      ],
      "type": "SCALAR"
    },
    {
      "bufferView": 1,
      "byteOffset": 15727704,
      "componentType": 5126,
      "count": 560,
      "max": [
        0.03869183361530304,
        0.012752330861985683,
        0.02541748620569706
      ],
      "min": [
        -0.038375992327928543,
        -0.036329273134469986,
        0.0096447039395570755
      ],
      "type": "VEC3"
    },
    {
      "bufferView": 1,
      "byteOffset": 15734424,
      "componentType": 5126,
      "count": 560,
      "max": [
        1,
        1,
        0.98724901676177979
      ],
      "min": [
        -0.99999994039535522,
        -1,
        -0.48616296052932739
      ],
      "type": "VEC3"
    },
    {
      "bufferView": 0,
      "byteOffset": 12447168,
      "componentType": 5125,
      "count": 1386,
      "max": [
        559
      ],
      "min": [
        0
      ],
      "type": "SCALAR"
    }
  ],
  "asset": {
    "extras": {
      "author": "MFathanFadhlurrahman (https://sketchfab.com/MFathanFadhlurrahman)",
      "license": "CC-BY-4.0 (http://creativecommons.org/licenses/by/4.0/)",
      "source": "https://sketchfab.com/3d-models/imajin-design-competition-monas-indonesia-0b44417b1d7a43f7af646f791f7bae6f",
      "title": "IMAJIN design Competition - Monas Indonesia"
    },
    "generator": "Sketchfab-6.49.1",
    "version": "2.0"
  },
  "bufferViews": [
    {
      "buffer": 0,
      "byteLength": 12452712,
      "byteOffset": 0,
      "name": "floatBufferViews",
      "target": 34963
    },
    {
      "buffer": 0,
      "byteLength": 15741144,
      "byteOffset": 12452712,
      "byteStride": 12,
      "name": "floatBufferViews",
      "target": 34962
    }
  ],
  "buffers": [
    {
      "byteLength": 28193856,
      "uri": "scene.bin"
    }
  ],
  "materials": [
    {
      "doubleSided": true,
      "name": "Scene_-_Root",
      "pbrMetallicRoughness": {
        "baseColorFactor": [
          0.68317165769449584,
          0.59621639257827108,
          0.49634869793055586,
          1
        ],
        "metallicFactor": 0,
        "roughnessFactor": 1
      }
    }
  ],
  "meshes": [
    {
      "primitives": [
        {
          "attributes": {
            "NORMAL": 1,
            "POSITION": 0
          },
          "indices": 2,
          "material": 0,
          "mode": 4
        }
      ]
    },
    {
      "primitives": [
        {
          "attributes": {
            "NORMAL": 4,
            "POSITION": 3
          },
          "indices": 5,
          "material": 0,
          "mode": 4
        }
      ]
    },
    {
      "primitives": [
        {
          "attributes": {
            "NORMAL": 7,
            "POSITION": 6
          },
          "indices": 8,
          "material": 0,
          "mode": 4
        }
      ]
    },
    {
      "primitives": [
        {
          "attributes": {
            "NORMAL": 10,
            "POSITION": 9
          },
          "indices": 11,
          "material": 0,
          "mode": 4
        }
      ]
    },
    {
      "primitives": [
        {
          "attributes": {
            "NORMAL": 13,
            "POSITION": 12
          },
          "indices": 14,
          "material": 0,
          "mode": 4
        }
      ]
    },
    {
      "primitives": [
        {
          "attributes": {
            "NORMAL": 16,
            "POSITION": 15
          },
          "indices": 17,
          "material": 0,
          "mode": 4
        }
      ]
    },
    {
      "primitives": [
        {
          "attributes": {
            "NORMAL": 19,
            "POSITION": 18
          },
          "indices": 20,
          "material": 0,
          "mode": 4
        }
      ]
    },
    {
      "primitives": [
        {
          "attributes": {
            "NORMAL": 22,
            "POSITION": 21
          },
          "indices": 23,
          "material": 0,
          "mode": 4
        }
      ]
    },
    {
      "primitives": [
        {
          "attributes": {
            "NORMAL": 25,
            "POSITION": 24
          },
          "indices": 26,
          "material": 0,
          "mode": 4
        }
      ]
    },
    {
      "primitives": [
        {
          "attributes": {
            "NORMAL": 28,
            "POSITION": 27
          },
          "indices": 29,
          "material": 0,
          "mode": 4
        }
      ]
    },
    {
      "primitives": [
        {
          "attributes": {
            "NORMAL": 31,
            "POSITION": 30
          },
          "indices": 32,
          "material": 0,
          "mode": 4
        }
      ]
    }
  ],
  "nodes": [
    {
      "children": [
        1
      ],
      "name": "RootNode (gltf orientation matrix)",
      "rotation": [
        -0.70710678118654746,
        -0,
        -0,
        0.70710678118654757
      ]
    },
    {
      "children": [
        2
      ],
      "name": "RootNode (model correction matrix)"
    },
    {
      "children": [
        3,
        4,
        5,
        6,
        7,
        8,
        9,
        10,
        11,
        12,
        13
      ],
      "name": "IMAJIN - Monas2.stl.cleaner.materialmerger.gles"
    },
    {
      "mesh": 0,
      "name": ""
    },
    {
      "mesh": 1,
      "name": ""
    },
    {
      "mesh": 2,
      "name": ""
    },
    {
      "mesh": 3,
      "name": ""
    },
    {
      "mesh": 4,
      "name": ""
    },
    {
      "mesh": 5,
      "name": ""
    },
    {
      "mesh": 6,
      "name": ""
    },
    {
      "mesh": 7,
      "name": ""
    },
    {
      "mesh": 8,
      "name": ""
    },
    {
      "mesh": 9,
      "name": ""
    },
    {
      "mesh": 10,
      "name": ""
    }
  ],
  "scene": 0,
  "scenes": [
    {
      "name": "OSG_Scene",
      "nodes": [
        0
      ]
    }
  ]
}

